<svg width="21" height="21" viewBox="0 0 21 21" fill="none" xmlns="http://www.w3.org/2000/svg">
<path fill-rule="evenodd" clip-rule="evenodd" d="M3 10.5C3 10.1548 3.27982 9.875 3.625 9.875H17.375C17.7202 9.875 18 10.1548 18 10.5C18 10.8452 17.7202 11.125 17.375 11.125H3.625C3.27982 11.125 3 10.8452 3 10.5Z" fill="#A259FF"/>
<path fill-rule="evenodd" clip-rule="evenodd" d="M11.3081 4.43306C11.5521 4.18898 11.9479 4.18898 12.1919 4.43306L17.8169 10.0581C18.061 10.3021 18.061 10.6979 17.8169 10.9419L12.1919 16.5669C11.9479 16.811 11.5521 16.811 11.3081 16.5669C11.064 16.3229 11.064 15.9271 11.3081 15.6831L16.4911 10.5L11.3081 5.31694C11.064 5.07286 11.064 4.67714 11.3081 4.43306Z" fill="#A259FF"/>
</svg>
